<mxfile host="app.diagrams.net">
  <diagram name="Page-1" id="diagram_id">
    <mxGraphModel dx="1144" dy="686" grid="1" gridSize="10" GUID="1qz0h9hs8h4qz1n4mb" connect="1" fold="1" page="1" math="0" shadow="0">
      <root>
        <mxCell id="0" parent="1"/>
        <mxCell id="1" parent="1"/>
        
        <!-- Staging Table -->
        <mxCell id="gog_games_staging" value="gog_games_staging" style="rounded=1;whiteSpace=wrap;html=1;fillColor=#D9EAD3;" vertex="1" parent="1">
          <mxGeometry x="20" y="20" width="160" height="440" as="geometry"/>
        </mxCell>
        
        <!-- Title Dimension Table -->
        <mxCell id="gog_game_title_dim" value="gog_game_title_dim" style="rounded=1;whiteSpace=wrap;html=1;fillColor=#D9EAD3;" vertex="1" parent="1">
          <mxGeometry x="220" y="20" width="160" height="220" as="geometry"/>
        </mxCell>
        
        <!-- Developer Dimension Table -->
        <mxCell id="gog_game_developer_dim" value="gog_game_developer_dim" style="rounded=1;whiteSpace=wrap;html=1;fillColor=#D9EAD3;" vertex="1" parent="1">
          <mxGeometry x="420" y="20" width="160" height="220" as="geometry"/>
        </mxCell>
        
        <!-- Publisher Dimension Table -->
        <mxCell id="gog_game_publisher_dim" value="gog_game_publisher_dim" style="rounded=1;whiteSpace=wrap;html=1;fillColor=#D9EAD3;" vertex="1" parent="1">
          <mxGeometry x="620" y="20" width="160" height="220" as="geometry"/>
        </mxCell>
        
        <!-- Operating Systems Dimension Table -->
        <mxCell id="gog_game_operating_systems_dim" value="gog_game_operating_systems_dim" style="rounded=1;whiteSpace=wrap;html=1;fillColor=#D9EAD3;" vertex="1" parent="1">
          <mxGeometry x="820" y="20" width="160" height="220" as="geometry"/>
        </mxCell>
        
        <!-- Currencies Dimension Table -->
        <mxCell id="gog_game_currencies_dim" value="gog_game_currencies_dim" style="rounded=1;whiteSpace=wrap;html=1;fillColor=#D9EAD3;" vertex="1" parent="1">
          <mxGeometry x="1020" y="20" width="160" height="220" as="geometry"/>
        </mxCell>
        
        <!-- Release Dates Dimension Table -->
        <mxCell id="gog_game_release_dates_dim" value="gog_game_release_dates_dim" style="rounded=1;whiteSpace=wrap;html=1;fillColor=#D9EAD3;" vertex="1" parent="1">
          <mxGeometry x="220" y="260" width="160" height="220" as="geometry"/>
        </mxCell>
        
        <!-- Product States Dimension Table -->
        <mxCell id="gog_game_product_state_dim" value="gog_game_product_state_dim" style="rounded=1;whiteSpace=wrap;html=1;fillColor=#D9EAD3;" vertex="1" parent="1">
          <mxGeometry x="420" y="260" width="160" height="220" as="geometry"/>
        </mxCell>
        
        <!-- Tags Dimension Table -->
        <mxCell id="gog_game_tags_dim" value="gog_game_tags_dim" style="rounded=1;whiteSpace=wrap;html=1;fillColor=#D9EAD3;" vertex="1" parent="1">
          <mxGeometry x="620" y="260" width="160" height="220" as="geometry"/>
        </mxCell>
        
        <!-- Fact Table -->
        <mxCell id="gog_games_fact" value="gog_games_fact" style="rounded=1;whiteSpace=wrap;html=1;fillColor=#D9EAD3;" vertex="1" parent="1">
          <mxGeometry x="820" y="260" width="160" height="220" as="geometry"/>
        </mxCell>
        
        <!-- Relationships -->
        <mxCell id="relation1" style="edgeStyle=orthogonalEdgeStyle;rounded=0;orthogonalLoop=1;exitX=0.5;exitY=1;entryX=0.5;entryY=0;" edge="1" parent="1" source="gog_games_staging" target="gog_game_title_dim">
          <mxGeometry relative="1" as="geometry"/>
        </mxCell>
        <mxCell id="relation2" style="edgeStyle=orthogonalEdgeStyle;rounded=0;orthogonalLoop=1;exitX=0.5;exitY=1;entryX=0.5;entryY=0;" edge="1" parent="1" source="gog_games_staging" target="gog_game_developer_dim">
          <mxGeometry relative="1" as="geometry"/>
        </mxCell>
        <mxCell id="relation3" style="edgeStyle=orthogonalEdgeStyle;rounded=0;orthogonalLoop=1;exitX=0.5;exitY=1;entryX=0.5;entryY=0;" edge="1" parent="1" source="gog_games_staging" target="gog_game_publisher_dim">
          <mxGeometry relative="1" as="geometry"/>
        </mxCell>
        <mxCell id="relation4" style="edgeStyle=orthogonalEdgeStyle;rounded=0;orthogonalLoop=1;exitX=0.5;exitY=1;entryX=0.5;entryY=0;" edge="1" parent="1" source="gog_games_staging" target="gog_game_operating_systems_dim">
          <mxGeometry relative="1" as="geometry"/>
        </mxCell>
        <mxCell id="relation5" style="edgeStyle=orthogonalEdgeStyle;rounded=0;orthogonalLoop=1;exitX=0.5;exitY=1;entryX=0.5;entryY=0;" edge="1" parent="1" source="gog_games_staging" target="gog_game_release_dates_dim">
          <mxGeometry relative="1" as="geometry"/>
        </mxCell>
        <mxCell id="relation6" style="edgeStyle=orthogonalEdgeStyle;rounded=0;orthogonalLoop=1;exitX=0.5;exitY=1;entryX=0.5;entryY=0;" edge="1" parent="1" source="gog_games_staging" target="gog_game_product_state_dim">
          <mxGeometry relative="1" as="geometry"/>
        </mxCell>
        <mxCell id="relation7" style="edgeStyle=orthogonalEdgeStyle;rounded=0;orthogonalLoop=1;exitX=0.5;exitY=1;entryX=0.5;entryY=0;" edge="1" parent="1" source="gog_games_staging" target="gog_game_tags_dim">
          <mxGeometry relative="1" as="geometry"/>
        </mxCell>
        <mxCell id="relation8" style="edgeStyle=orthogonalEdgeStyle;rounded=0;orthogonalLoop=1;exitX=0.5;exitY=1;entryX=0.5;entryY=0;" edge="1" parent="1" source="gog_game_title_dim" target="gog_games_fact">
          <mxGeometry relative="1" as="geometry"/>
        </mxCell>
        <mxCell id="relation9" style="edgeStyle=orthogonalEdgeStyle;rounded=0;orthogonalLoop=1;exitX=0.5;exitY=1;entryX=0.5;entryY=0;" edge="1" parent="1" source="gog_game_developer_dim" target="gog_games_fact">
          <mxGeometry relative="1" as="geometry"/>
        </mxCell>
        <mxCell id="relation10" style="edgeStyle=orthogonalEdgeStyle;rounded=0;orthogonalLoop=1;exitX=0.5;exitY=1;entryX=0.5;entryY=0;" edge="1" parent="1" source="gog_game_publisher_dim" target="gog_games_fact">
          <mxGeometry relative="1" as="geometry"/>
        </mxCell>
        <mxCell id="relation11" style="edgeStyle=orthogonalEdgeStyle;rounded=0;orthogonalLoop=1;exitX=0.5;exitY=1;entryX=0.5;entryY=0;" edge="1" parent="1" source="gog_game_operating_systems_dim" target="gog_games_fact">
          <mxGeometry relative="1" as="geometry"/>
        </mxCell>
        <mxCell id="relation12" style="edgeStyle=orthogonalEdgeStyle;rounded=0;orthogonalLoop=1;exitX=0.5;exitY=1;entryX=0.5;entryY=0;" edge="1" parent="1" source="gog_game_release_dates_dim" target="gog_games_fact">
          <mxGeometry relative="1" as="geometry"/>
        </mxCell>
        <mxCell id="relation13" style="edgeStyle=orthogonalEdgeStyle;rounded=0;orthogonalLoop=1;exitX=0.5;exitY=1;entryX=0.5;entryY=0;" edge="1" parent="1" source="gog_game_product_state_dim" target="gog_games_fact">
          <mxGeometry relative="1" as="geometry"/>
        </mxCell>
      </root>
    </mxGraphModel>
  </diagram>
</mxfile>
